<svg width="24" height="24" viewBox="0 0 24 24" fill="none" xmlns="http://www.w3.org/2000/svg">
<path d="M10.5 9.30771C10.0853 9.30771 9.75 9.63436 9.75 10.0385V15.8846C9.75 16.2887 10.0853 16.6154 10.5 16.6154C10.9147 16.6154 11.25 16.2887 11.25 15.8846V10.0385C11.25 9.63436 10.9147 9.30771 10.5 9.30771Z" fill="#4B84F4"/>
<path d="M13.5 9.30771C13.0853 9.30771 12.75 9.63436 12.75 10.0385V15.8846C12.75 16.2887 13.0853 16.6154 13.5 16.6154C13.9147 16.6154 14.25 16.2887 14.25 15.8846V10.0385C14.25 9.63436 13.9147 9.30771 13.5 9.30771Z" fill="#4B84F4"/>
<path d="M14.25 2H9.75C8.92275 2 8.25 2.6555 8.25 3.46154V4.92308H6H3.75C3.33525 4.92308 3 5.24973 3 5.65385C3 6.05796 3.33525 6.38462 3.75 6.38462H5.25V18.8077C5.25 20.0164 6.2595 21 7.5 21H16.5C17.7405 21 18.75 20.0164 18.75 18.8077V6.38462H20.25C20.6647 6.38462 21 6.05796 21 5.65385C21 5.24973 20.6647 4.92308 20.25 4.92308H18H15.75V3.46154C15.75 2.6555 15.0773 2 14.25 2ZM17.25 18.8077C17.25 19.2111 16.914 19.5385 16.5 19.5385H7.5C7.086 19.5385 6.75 19.2111 6.75 18.8077V6.38462H17.25V18.8077ZM9.75 4.92308V3.46154H14.25V4.92308H9.75Z" fill="#4B84F4"/>
</svg>
