<svg width="24" height="24" viewBox="0 0 24 24" fill="none" xmlns="http://www.w3.org/2000/svg">
<path d="M17.7855 11.9998C17.4304 11.9998 17.1426 12.2876 17.1426 12.6427V19.0711C17.1426 19.4262 16.8548 19.714 16.4998 19.714H4.92854C4.5735 19.714 4.28568 19.4262 4.28568 19.0711V6.21419C4.28568 5.85914 4.5735 5.57133 4.92854 5.57133H12.6427C12.9978 5.57133 13.2856 5.28352 13.2856 4.92847C13.2856 4.57342 12.9978 4.28564 12.6427 4.28564H4.92854C3.86344 4.28564 3 5.14908 3 6.21419V19.0711C3 20.1362 3.86344 20.9997 4.92854 20.9997H16.4998C17.5649 20.9997 18.4284 20.1362 18.4284 19.0711V12.6426C18.4284 12.2876 18.1405 11.9998 17.7855 11.9998Z" fill="#4B84F4"/>
<path d="M20.2794 3.72088C19.8178 3.25923 19.1918 2.99993 18.539 3.00001C17.8858 2.99813 17.2591 3.25788 16.7988 3.72129L8.33115 12.1882C8.2609 12.259 8.20791 12.345 8.17623 12.4396L6.89054 16.2966C6.77834 16.6335 6.96045 16.9975 7.29731 17.1097C7.36266 17.1315 7.4311 17.1426 7.49996 17.1426C7.56896 17.1425 7.63755 17.1315 7.7031 17.1099L11.5602 15.8242C11.6549 15.7926 11.741 15.7393 11.8115 15.6686L20.2791 7.20104C21.2402 6.24008 21.2403 4.68195 20.2794 3.72088ZM19.3702 6.29266L11.0131 14.6497L8.51629 15.4835L9.34748 12.9898L17.7077 4.63283C18.1673 4.17412 18.9118 4.17488 19.3705 4.63449C19.5896 4.85405 19.7131 5.15128 19.7141 5.46147C19.7148 5.77331 19.591 6.07254 19.3702 6.29266Z" fill="#4B84F4"/>
</svg>
