<svg width="32" height="33" viewBox="0 0 32 33" fill="none" xmlns="http://www.w3.org/2000/svg">
<path fill-rule="evenodd" clip-rule="evenodd" d="M13.3334 8.49992C13.3334 9.97268 14.5273 11.1666 16.0001 11.1666C17.4728 11.1666 18.6667 9.97268 18.6667 8.49992C18.6667 7.02716 17.4728 5.83325 16.0001 5.83325C14.5273 5.83325 13.3334 7.02716 13.3334 8.49992ZM16.0001 19.1666C14.5273 19.1666 13.3334 17.9727 13.3334 16.4999C13.3334 15.0272 14.5273 13.8333 16.0001 13.8333C17.4728 13.8333 18.6667 15.0272 18.6667 16.4999C18.6667 17.9727 17.4728 19.1666 16.0001 19.1666ZM16.0001 27.1666C14.5273 27.1666 13.3334 25.9727 13.3334 24.4999C13.3334 23.0272 14.5273 21.8333 16.0001 21.8333C17.4728 21.8333 18.6667 23.0272 18.6667 24.4999C18.6667 25.9727 17.4728 27.1666 16.0001 27.1666Z" fill="#005CAA"/>
</svg>
